<svg width="64" height="64" xmlns="http://www.w3.org/2000/svg">
    <path transform="rotate(45)" fill="none" stroke="#909090" stroke-width="5" stroke-linecap="round"
          d="M26.905 -18.35H63.606V18.351H26.905z"/>
    <path transform="rotate(45)" fill="#1a1a1a" d="M28.284 -16.971H62.225V16.970000000000002H28.284z"/>
    <g opacity=".5">
        <path d="m 23.545,19.211 h 5.96 v 2.546 h -5.96 z" display="block" fill="#869eb6"
              style="isolation:auto;mix-blend-mode:normal" transform="translate(7.566 6.987) scale(.7859)"/>
        <path d="m 29.684,19.5 h 3.467 v 2.311 h -3.467 z" display="block" fill="#8e9f81"
              style="isolation:auto;mix-blend-mode:normal" transform="translate(7.566 6.987) scale(.7859)"/>
        <path d="m 23.545,23.454 h 5.96 V 26 h -5.96 z" display="block" fill="#9e9e86"
              style="isolation:auto;mix-blend-mode:normal" transform="translate(7.566 6.987) scale(.7859)"/>
        <path d="m 30.334,23.454 h 3.394 V 26 h -3.394 z" display="block" fill="#86b1d6" fill-opacity=".357"
              style="isolation:auto;mix-blend-mode:normal" transform="translate(7.566 6.987) scale(.7859)"/>
        <path d="m 34.577,23.454 h 3.395 V 26 h -3.395 z" display="block" fill="#88885e" fill-opacity=".495"
              style="isolation:auto;mix-blend-mode:normal" transform="translate(7.566 6.987) scale(.7859)"/>
        <path d="m 23.545,27.697 h 5.96 v 2.546 h -5.96 z" display="block" fill="#987f95"
              style="isolation:auto;mix-blend-mode:normal" transform="translate(7.566 6.987) scale(.7859)"/>
        <path d="m 30.334,27.697 h 4.243 v 2.546 h -4.243 z" display="block" fill="#9d875f" fill-opacity=".687"
              style="isolation:auto;mix-blend-mode:normal" transform="translate(7.566 6.987) scale(.7859)"/>
        <path d="m 23.545,36.183 h 5.94 v 2.546 h -5.94 z" display="block" fill="#987f95" fill-opacity=".676"
              style="isolation:auto;mix-blend-mode:normal" transform="translate(7.566 6.987) scale(.7859)"/>
        <path d="m 30.334,36.183 h 5.78 v 2.546 h -5.78 z" display="block" fill="#68798d" fill-opacity=".764"
              style="isolation:auto;mix-blend-mode:normal" transform="translate(7.566 6.987) scale(.7859)"/>
        <path d="m 37.123,36.183 h 5.94 v 2.546 h -5.94 z" display="block" fill="#606d78"
              style="isolation:auto;mix-blend-mode:normal" transform="translate(7.566 6.987) scale(.7859)"/>
        <path d="m 43.912,36.183 h 4.243 v 2.546 h -4.243 z" display="block" fill="#8f6094"
              style="isolation:auto;mix-blend-mode:normal" transform="translate(7.566 6.987) scale(.7859)"/>
        <path d="m 23.545,40.427 h 5.96 v 2.545 h -5.96 z" display="block" fill="#b36b75"
              style="isolation:auto;mix-blend-mode:normal" transform="translate(7.566 6.987) scale(.7859)"/>
        <path d="m 30.334,40.427 h 3.394 v 2.26 h -3.394 z" display="block" fill="#b47f70"
              style="isolation:auto;mix-blend-mode:normal" transform="translate(7.566 6.987) scale(.7859)"/>
        <path d="m 23.545,46.367 h 6.789 v 2.546 h -6.789 z" display="block" fill="#53c290"
              style="isolation:auto;mix-blend-mode:normal" transform="translate(7.566 6.987) scale(.7859)"/>
        <path d="m 31.183,46.367 h 4.243 v 2.546 h -4.243 z" display="block" fill="#e675d2"
              style="isolation:auto;mix-blend-mode:normal" transform="translate(7.566 6.987) scale(.7859)"/>
        <path d="m 34.577,40.427 h 3.395 v 2.545 h -3.395 z" display="block" fill="#5e6974"
              style="isolation:auto;mix-blend-mode:normal" transform="translate(7.566 6.987) scale(.7859)"/>
        <path d="m 37.773,42.034 h 5.2 v 2.31 h -5.2 z" display="block" fill="#4d854d"
              style="isolation:auto;mix-blend-mode:normal" transform="translate(7.566 6.987) scale(.7859)"/>
        <path d="m 33.728,19.5 h 5.779 v 2.311 h -5.78 z" display="block" fill="#b36b75"
              style="isolation:auto;mix-blend-mode:normal" transform="translate(7.566 6.987) scale(.7859)"/>
        <path d="m 40.085,19.5 h 5.778 v 2.311 h -5.78 z" display="block" fill="#8f6094"
              style="isolation:auto;mix-blend-mode:normal" transform="translate(7.566 6.987) scale(.7859)"/>
        <path d="M 18.453,19.211 H 21 v 2.546 h -2.546 z m 0,4.243 H 21 V 26 h -2.546 z m 0,4.243 H 21 v 2.546 h -2.546 z m 0,4.243 H 21 v 2.546 h -2.546 z m 0,4.243 H 21 v 2.546 h -2.546 z m 0,4.244 H 21 v 2.545 h -2.546 z m 0,5.94 H 21 v 2.546 h -2.546 z"
              display="block" fill="#575f70" style="isolation:auto;mix-blend-mode:normal"
              transform="translate(7.566 6.987) scale(.7859)"/>
        <path d="m 23.545,14.968 h 5.94 v 2.546 h -5.94 z" display="block" fill="#9176e2"
              style="isolation:auto;mix-blend-mode:normal" transform="translate(7.566 6.987) scale(.7859)"/>
        <path d="m 30.334,14.968 h 3.394 v 2.546 h -3.394 z" display="block" fill="#57bdff" fill-opacity=".824"
              style="isolation:auto;mix-blend-mode:normal" transform="translate(7.566 6.987) scale(.7859)"/>
        <path d="M 18.453,14.968 H 21 v 2.546 h -2.546 z" display="block" fill="#575f70"
              style="isolation:auto;mix-blend-mode:normal" transform="translate(7.566 6.987) scale(.7859)"/>
    </g>
    <path fill="none" stroke-width="3.5" stroke="#4d4d4d"
          d="M 31.999785,7.9998737 55.999696,31.999785 31.999785,55.999696 7.9998738,31.999785 Z"/>
    <path d="M 39.418621,41.228722 H 26.632976 l -5.169184,-8.95329 5.169184,-8.953288 12.785645,-1e-6" fill="none"
          stroke="#fefefe" stroke-width="2.791"/>
    <path fill="none" stroke="#ff6033" stroke-width="2.65" d="M30.825 31.825H33.175V32.175H30.825z"/>
</svg>
