<svg width="700" height="120" xmlns="http://www.w3.org/2000/svg">
    <path d="m 1.5,1.5 h 697 v 117 H 1.5 Z" fill="#161616" stroke="gray" stroke-width="3"/>
    <path fill="none" stroke="#909090" stroke-width="6.783" stroke-linecap="round"
          d="M 90.00033,24.796305 125.20435,60.000328 90.00033,95.204352 54.796305,60.000328 Z"/>
    <path fill="#1a1a1a" stroke-width="4.748" stroke="#4d4d4d"
          d="m 90.00033,27.44181 32.5566,32.5566 L 90.00033,92.555009 57.443729,59.99841 Z"/>
    <g opacity=".5">
        <path d="m 23.545,19.211 h 5.96 v 2.546 h -5.96 z" display="block" fill="#869eb6"
              style="isolation:auto;mix-blend-mode:normal" transform="translate(56.854 26.069) scale(1.0661)"/>
        <path d="m 29.684,19.5 h 3.467 v 2.311 h -3.467 z" display="block" fill="#8e9f81"
              style="isolation:auto;mix-blend-mode:normal" transform="translate(56.854 26.069) scale(1.0661)"/>
        <path d="m 23.545,23.454 h 5.96 V 26 h -5.96 z" display="block" fill="#9e9e86"
              style="isolation:auto;mix-blend-mode:normal" transform="translate(56.854 26.069) scale(1.0661)"/>
        <path d="m 30.334,23.454 h 3.394 V 26 h -3.394 z" display="block" fill="#86b1d6" fill-opacity=".357"
              style="isolation:auto;mix-blend-mode:normal" transform="translate(56.854 26.069) scale(1.0661)"/>
        <path d="m 34.577,23.454 h 3.395 V 26 h -3.395 z" display="block" fill="#88885e" fill-opacity=".495"
              style="isolation:auto;mix-blend-mode:normal" transform="translate(56.854 26.069) scale(1.0661)"/>
        <path d="m 23.545,27.697 h 5.96 v 2.546 h -5.96 z" display="block" fill="#987f95"
              style="isolation:auto;mix-blend-mode:normal" transform="translate(56.854 26.069) scale(1.0661)"/>
        <path d="m 30.334,27.697 h 4.243 v 2.546 h -4.243 z" display="block" fill="#9d875f" fill-opacity=".687"
              style="isolation:auto;mix-blend-mode:normal" transform="translate(56.854 26.069) scale(1.0661)"/>
        <path d="m 23.545,36.183 h 5.94 v 2.546 h -5.94 z" display="block" fill="#987f95" fill-opacity=".676"
              style="isolation:auto;mix-blend-mode:normal" transform="translate(56.854 26.069) scale(1.0661)"/>
        <path d="m 30.334,36.183 h 5.78 v 2.546 h -5.78 z" display="block" fill="#68798d" fill-opacity=".764"
              style="isolation:auto;mix-blend-mode:normal" transform="translate(56.854 26.069) scale(1.0661)"/>
        <path d="m 37.123,36.183 h 5.94 v 2.546 h -5.94 z" display="block" fill="#606d78"
              style="isolation:auto;mix-blend-mode:normal" transform="translate(56.854 26.069) scale(1.0661)"/>
        <path d="m 43.912,36.183 h 4.243 v 2.546 h -4.243 z" display="block" fill="#8f6094"
              style="isolation:auto;mix-blend-mode:normal" transform="translate(56.854 26.069) scale(1.0661)"/>
        <path d="m 23.545,40.427 h 5.96 v 2.545 h -5.96 z" display="block" fill="#b36b75"
              style="isolation:auto;mix-blend-mode:normal" transform="translate(56.854 26.069) scale(1.0661)"/>
        <path d="m 30.334,40.427 h 3.394 v 2.26 h -3.394 z" display="block" fill="#b47f70"
              style="isolation:auto;mix-blend-mode:normal" transform="translate(56.854 26.069) scale(1.0661)"/>
        <path d="m 23.545,46.367 h 6.789 v 2.546 h -6.789 z" display="block" fill="#53c290"
              style="isolation:auto;mix-blend-mode:normal" transform="translate(56.854 26.069) scale(1.0661)"/>
        <path d="m 31.183,46.367 h 4.243 v 2.546 h -4.243 z" display="block" fill="#e675d2"
              style="isolation:auto;mix-blend-mode:normal" transform="translate(56.854 26.069) scale(1.0661)"/>
        <path d="m 34.577,40.427 h 3.395 v 2.545 h -3.395 z" display="block" fill="#5e6974"
              style="isolation:auto;mix-blend-mode:normal" transform="translate(56.854 26.069) scale(1.0661)"/>
        <path d="m 37.773,42.034 h 5.2 v 2.31 h -5.2 z" display="block" fill="#4d854d"
              style="isolation:auto;mix-blend-mode:normal" transform="translate(56.854 26.069) scale(1.0661)"/>
        <path d="m 33.728,19.5 h 5.779 v 2.311 h -5.78 z" display="block" fill="#b36b75"
              style="isolation:auto;mix-blend-mode:normal" transform="translate(56.854 26.069) scale(1.0661)"/>
        <path d="m 40.085,19.5 h 5.778 v 2.311 h -5.78 z" display="block" fill="#8f6094"
              style="isolation:auto;mix-blend-mode:normal" transform="translate(56.854 26.069) scale(1.0661)"/>
        <path d="M 18.453,19.211 H 21 v 2.546 h -2.546 z m 0,4.243 H 21 V 26 h -2.546 z m 0,4.243 H 21 v 2.546 h -2.546 z m 0,4.243 H 21 v 2.546 h -2.546 z m 0,4.243 H 21 v 2.546 h -2.546 z m 0,4.244 H 21 v 2.545 h -2.546 z m 0,5.94 H 21 v 2.546 h -2.546 z"
              display="block" fill="#575f70" style="isolation:auto;mix-blend-mode:normal"
              transform="translate(56.854 26.069) scale(1.0661)"/>
        <path d="m 23.545,14.968 h 5.94 v 2.546 h -5.94 z" display="block" fill="#9176e2"
              style="isolation:auto;mix-blend-mode:normal" transform="translate(56.854 26.069) scale(1.0661)"/>
        <path d="m 30.334,14.968 h 3.394 v 2.546 h -3.394 z" display="block" fill="#57bdff" fill-opacity=".824"
              style="isolation:auto;mix-blend-mode:normal" transform="translate(56.854 26.069) scale(1.0661)"/>
        <path d="M 18.453,14.968 H 21 v 2.546 h -2.546 z" display="block" fill="#575f70"
              style="isolation:auto;mix-blend-mode:normal" transform="translate(56.854 26.069) scale(1.0661)"/>
    </g>
    <path d="M 100.06394,72.518731 H 82.719834 l -7.012153,-12.145406 7.012153,-12.145404 17.344106,-1e-6" fill="none"
          stroke="#fefefe" stroke-width="3.786"/>
    <path fill="none" stroke="#ff6033" stroke-width="3.595" d="m 88.40644,59.7623 h 3.18785 v 0.474786 h -3.18785 z"/>
    <g style="line-height:1.25;-inkscape-font-specification:'URW Gothic'">
        <path d="m 115,73.940002 v -4.52 h 5.88 v -20.16 H 115 v -4.52 h 16.8 v 4.52 h -5.88 v 20.16 h 5.88 v 4.52 z m 23.48002,0 v -22 h 4.88 v 4.2 h 0.08 c 0.24,-1.44 0.86667,-2.56 1.88,-3.36 1.01333,-0.826667 2.33333,-1.24 3.96,-1.24 2.16,0 3.88,0.72 5.16,2.16 1.30667,1.44 1.96,3.373333 1.96,5.8 v 14.44 h -5 v -13.92 c 0,-1.333333 -0.36,-2.36 -1.08,-3.08 -0.69333,-0.72 -1.64,-1.08 -2.84,-1.08 -1.25333,0 -2.24,0.373333 -2.96,1.12 -0.69333,0.746667 -1.04,1.813333 -1.04,3.2 v 13.76 z m 35.32001,0 c -2.05333,0 -3.69333,-0.586667 -4.92,-1.76 -1.2,-1.2 -1.8,-2.813333 -1.8,-4.84 v -10.88 h -5.96 v -4.52 h 5.96 v -6.2 h 5.04 v 6.2 h 8.44 v 4.52 h -8.44 v 10.76 c 0,0.64 0.17333,1.173333 0.52,1.6 0.37333,0.4 0.88,0.6 1.52,0.6 h 6 v 4.52 z m 21.64002,0.4 c -1.86667,0 -3.49333,-0.36 -4.88,-1.08 -1.38667,-0.72 -2.46667,-1.72 -3.24,-3 -0.74667,-1.306667 -1.12,-2.826667 -1.12,-4.56 v -5.52 c 0,-1.733333 0.37333,-3.24 1.12,-4.52 0.77333,-1.306667 1.85333,-2.32 3.24,-3.04 1.38667,-0.72 3.01333,-1.08 4.88,-1.08 1.84,0 3.44,0.36 4.8,1.08 1.38667,0.72 2.45333,1.733333 3.2,3.04 0.77333,1.28 1.16,2.786667 1.16,4.52 v 3.96 h -13.56 v 1.56 c 0,3.12 1.48,4.68 4.44,4.68 2.29333,0 3.64,-0.76 4.04,-2.28 h 4.92 c -0.37333,1.893333 -1.38667,3.413333 -3.04,4.56 -1.62667,1.12 -3.61333,1.68 -5.96,1.68 z m -4.4,-14.16 v 0.84 l 8.72,-0.04 v -0.84 c 0,-1.52 -0.36,-2.68 -1.08,-3.48 -0.72,-0.826667 -1.8,-1.24 -3.24,-1.24 -1.46667,0 -2.57333,0.413333 -3.32,1.24 -0.72,0.826667 -1.08,2 -1.08,3.52 z m 20.08001,13.76 v -22 h 4.88 v 4.2 h 0.12 c 0.21333,-1.44 0.85333,-2.56 1.92,-3.36 1.06667,-0.826667 2.42667,-1.24 4.08,-1.24 2.26667,0 4.08,0.746667 5.44,2.24 1.36,1.466667 2.04,3.48 2.04,6.04 v 1.8 h -5.24 v -1.44 c 0,-1.36 -0.36,-2.413333 -1.08,-3.16 -0.69333,-0.773333 -1.70667,-1.16 -3.04,-1.16 -2.74667,0 -4.12,1.533333 -4.12,4.6 v 13.48 z m 29.84002,0.4 c -2.26667,0 -4.05333,-0.586667 -5.36,-1.76 -1.30667,-1.2 -1.96,-2.826667 -1.96,-4.88 0,-2.16 0.74667,-3.826667 2.24,-5 1.49333,-1.2 3.57333,-1.8 6.24,-1.8 h 5.28 v -1.84 c 0,-1.066667 -0.34667,-1.893333 -1.04,-2.48 -0.69333,-0.586667 -1.66667,-0.88 -2.92,-0.88 -1.14667,0 -2.09333,0.24 -2.84,0.72 -0.72,0.48 -1.12,1.12 -1.2,1.92 h -4.76 c 0.10667,-2.053333 0.97333,-3.693333 2.6,-4.92 1.65333,-1.253333 3.77333,-1.88 6.36,-1.88 2.72,0 4.86667,0.666667 6.44,2 1.57333,1.333333 2.36,3.16 2.36,5.48 v 14.92 h -4.84 v -3.72 h -0.08 c -0.29333,1.28 -1.01333,2.293333 -2.16,3.04 -1.14667,0.72 -2.6,1.08 -4.36,1.08 z m 1.64,-3.72 c 1.41333,0 2.56,-0.346667 3.44,-1.04 0.90667,-0.72 1.36,-1.666667 1.36,-2.84 v -2.64 h -5.16 c -1.12,0 -2,0.293333 -2.64,0.88 -0.64,0.56 -0.96,1.333333 -0.96,2.32 0,1.04 0.34667,1.853333 1.04,2.44 0.72,0.586667 1.69333,0.88 2.92,0.88 z m 24.92001,3.72 c -1.86667,0 -3.50667,-0.346667 -4.92,-1.04 -1.38667,-0.72 -2.46667,-1.72 -3.24,-3 -0.77333,-1.306667 -1.16,-2.84 -1.16,-4.6 v -5.52 c 0,-1.76 0.38667,-3.28 1.16,-4.56 0.77333,-1.306667 1.85333,-2.306667 3.24,-3 1.41333,-0.72 3.05333,-1.08 4.92,-1.08 2.77333,0 4.98667,0.72 6.64,2.16 1.65333,1.413333 2.52,3.346667 2.6,5.8 h -4.88 c -0.08,-1.146667 -0.52,-2.026667 -1.32,-2.64 -0.77333,-0.64 -1.78667,-0.96 -3.04,-0.96 -1.33333,0 -2.38667,0.373333 -3.16,1.12 -0.77333,0.72 -1.16,1.76 -1.16,3.12 v 5.56 c 0,1.36 0.38667,2.413333 1.16,3.16 0.77333,0.746667 1.82667,1.12 3.16,1.12 1.28,0 2.30667,-0.306667 3.08,-0.92 0.77333,-0.64 1.2,-1.533333 1.28,-2.68 h 4.88 c -0.08,2.453333 -0.94667,4.4 -2.6,5.84 -1.65333,1.413333 -3.86667,2.12 -6.64,2.12 z m 26.28002,-0.4 c -2.05333,0 -3.69333,-0.586667 -4.92,-1.76 -1.2,-1.2 -1.8,-2.813333 -1.8,-4.84 v -10.88 h -5.96 v -4.52 h 5.96 v -6.2 h 5.04 v 6.2 h 8.44 v 4.52 h -8.44 v 10.76 c 0,0.64 0.17333,1.173333 0.52,1.6 0.37333,0.4 0.88,0.6 1.52,0.6 h 6 v 4.52 z m 12.64001,0 v -4.52 h 7.52 v -12.96 h -6.72 v -4.52 h 11.72 v 17.48 h 6.76 v 4.52 z m 9.68,-25.68 c -1.01333,0 -1.81333,-0.253333 -2.4,-0.76 -0.58667,-0.533333 -0.88,-1.24 -0.88,-2.12 0,-0.88 0.29333,-1.573333 0.88,-2.08 0.58667,-0.533333 1.38667,-0.8 2.4,-0.8 1.01333,0 1.81333,0.266667 2.4,0.8 0.58667,0.506667 0.88,1.2 0.88,2.08 0,0.88 -0.29333,1.586667 -0.88,2.12 -0.58667,0.506667 -1.38667,0.76 -2.4,0.76 z m 20.12002,25.68 -7.56,-22 h 5.2 l 4.44,13.36 c 0.26667,0.8 0.49333,1.626667 0.68,2.48 0.21333,0.853333 0.37333,1.533333 0.48,2.04 0.13333,-0.506667 0.29333,-1.186667 0.48,-2.04 0.18667,-0.853333 0.4,-1.666667 0.64,-2.44 l 4.36,-13.4 h 5.16 l -7.52,22 z m 27.20001,0.4 c -1.86667,0 -3.49333,-0.36 -4.88,-1.08 -1.38667,-0.72 -2.46667,-1.72 -3.24,-3 -0.74667,-1.306667 -1.12,-2.826667 -1.12,-4.56 v -5.52 c 0,-1.733333 0.37333,-3.24 1.12,-4.52 0.77333,-1.306667 1.85333,-2.32 3.24,-3.04 1.38667,-0.72 3.01333,-1.08 4.88,-1.08 1.84,0 3.44,0.36 4.8,1.08 1.38667,0.72 2.45333,1.733333 3.2,3.04 0.77333,1.28 1.16,2.786667 1.16,4.52 v 3.96 h -13.56 v 1.56 c 0,3.12 1.48,4.68 4.44,4.68 2.29333,0 3.64,-0.76 4.04,-2.28 h 4.92 c -0.37333,1.893333 -1.38667,3.413333 -3.04,4.56 -1.62667,1.12 -3.61333,1.68 -5.96,1.68 z m -4.4,-14.16 v 0.84 l 8.72,-0.04 v -0.84 c 0,-1.52 -0.36,-2.68 -1.08,-3.48 -0.72,-0.826667 -1.8,-1.24 -3.24,-1.24 -1.46667,0 -2.57333,0.413333 -3.32,1.24 -0.72,0.826667 -1.08,2 -1.08,3.52 z m 43.88003,13.76 v -29.2 h 17.52 v 4.4 h -12.6 v 7.6 h 11.2 v 4.24 h -11.2 v 8.56 h 12.6 v 4.4 z m 21.92,0 7.68,-11.36 -7.16,-10.64 h 5.64 l 3.4,5.4 c 0.21333,0.32 0.41333,0.68 0.6,1.08 0.18667,0.4 0.32,0.72 0.4,0.96 0.10667,-0.24 0.25333,-0.56 0.44,-0.96 0.18667,-0.4 0.37333,-0.76 0.56,-1.08 l 3.44,-5.4 h 5.64 l -7.16,10.64 7.64,11.36 h -5.68 l -3.8,-6.04 c -0.21333,-0.32 -0.42667,-0.68 -0.64,-1.08 -0.18667,-0.426667 -0.33333,-0.76 -0.44,-1 -0.10667,0.24 -0.25333,0.573333 -0.44,1 -0.18667,0.4 -0.38667,0.76 -0.6,1.08 l -3.88,6.04 z m 25.64004,7.2 v -29.2 h 4.88 v 3.96 h 0.08 c 0.4,-1.386667 1.10667,-2.453333 2.12,-3.2 1.04,-0.773333 2.32,-1.16 3.84,-1.16 2.16,0 3.89333,0.76 5.2,2.28 1.33333,1.52 2,3.56 2,6.12 v 5.96 c 0,2.586667 -0.66667,4.64 -2,6.16 -1.30667,1.52 -3.04,2.28 -5.2,2.28 -1.49333,0 -2.76,-0.373333 -3.8,-1.12 -1.04,-0.773333 -1.76,-1.853333 -2.16,-3.24 h -0.08 l 0.12,5 v 6.16 z m 9.08,-11.12 c 1.28,0 2.26667,-0.373333 2.96,-1.12 0.72,-0.746667 1.08,-1.813333 1.08,-3.2 v -5.52 c 0,-1.386667 -0.36,-2.453333 -1.08,-3.2 -0.69333,-0.746667 -1.68,-1.12 -2.96,-1.12 -1.28,0 -2.28,0.386667 -3,1.16 -0.72,0.773333 -1.08,1.866667 -1.08,3.28 v 5.28 c 0,1.413333 0.36,2.506667 1.08,3.28 0.72,0.773333 1.72,1.16 3,1.16 z m 27.40003,3.92 c -2.18667,0 -3.94667,-0.653333 -5.28,-1.96 -1.30667,-1.306667 -1.96,-3.026667 -1.96,-5.16 v -17.56 h -7.24 v -4.52 h 12.24 v 21.96 c 0,0.826667 0.22667,1.493333 0.68,2 0.48,0.48 1.12,0.72 1.92,0.72 h 6.44 v 4.52 z m 20.44,0.36 c -2.82667,0 -5.06667,-0.773333 -6.72,-2.32 -1.65333,-1.573333 -2.48,-3.68 -2.48,-6.32 v -5.44 c 0,-2.64 0.82667,-4.733333 2.48,-6.28 1.65333,-1.573333 3.89333,-2.36 6.72,-2.36 2.82667,0 5.06667,0.786667 6.72,2.36 1.65333,1.546667 2.48,3.626667 2.48,6.24 v 5.48 c 0,2.64 -0.82667,4.746667 -2.48,6.32 -1.65333,1.546667 -3.89333,2.32 -6.72,2.32 z m 0,-4.36 c 1.33333,0 2.36,-0.36 3.08,-1.08 0.74667,-0.746667 1.12,-1.813333 1.12,-3.2 v -5.44 c 0,-1.386667 -0.37333,-2.44 -1.12,-3.16 -0.72,-0.746667 -1.74667,-1.12 -3.08,-1.12 -1.33333,0 -2.37333,0.373333 -3.12,1.12 -0.72,0.72 -1.08,1.773333 -1.08,3.16 v 5.44 c 0,1.386667 0.36,2.453333 1.08,3.2 0.74667,0.72 1.78667,1.08 3.12,1.08 z m 15.72,4 v -22 h 4.88 v 4.2 h 0.12 c 0.21333,-1.44 0.85333,-2.56 1.92,-3.36 1.06667,-0.826667 2.42667,-1.24 4.08,-1.24 2.26667,0 4.08,0.746667 5.44,2.24 1.36,1.466667 2.04,3.48 2.04,6.04 v 1.8 h -5.24 v -1.44 c 0,-1.36 -0.36,-2.413333 -1.08,-3.16 -0.69333,-0.773333 -1.70667,-1.16 -3.04,-1.16 -2.74667,0 -4.12,1.533333 -4.12,4.6 v 13.48 z m 32.32003,0.4 c -1.86667,0 -3.49333,-0.36 -4.88,-1.08 -1.38667,-0.72 -2.46667,-1.72 -3.24,-3 -0.74667,-1.306667 -1.12,-2.826667 -1.12,-4.56 v -5.52 c 0,-1.733333 0.37333,-3.24 1.12,-4.52 0.77333,-1.306667 1.85333,-2.32 3.24,-3.04 1.38667,-0.72 3.01333,-1.08 4.88,-1.08 1.84,0 3.44,0.36 4.8,1.08 1.38667,0.72 2.45333,1.733333 3.2,3.04 0.77333,1.28 1.16,2.786667 1.16,4.52 v 3.96 h -13.56 v 1.56 c 0,3.12 1.48,4.68 4.44,4.68 2.29333,0 3.64,-0.76 4.04,-2.28 h 4.92 c -0.37333,1.893333 -1.38667,3.413333 -3.04,4.56 -1.62667,1.12 -3.61333,1.68 -5.96,1.68 z m -4.4,-14.16 v 0.84 l 8.72,-0.04 v -0.84 c 0,-1.52 -0.36,-2.68 -1.08,-3.48 -0.72,-0.826667 -1.8,-1.24 -3.24,-1.24 -1.46667,0 -2.57333,0.413333 -3.32,1.24 -0.72,0.826667 -1.08,2 -1.08,3.52 z m 20.08003,13.76 v -22 h 4.88 v 4.2 h 0.12 c 0.21333,-1.44 0.85333,-2.56 1.92,-3.36 1.06667,-0.826667 2.42667,-1.24 4.08,-1.24 2.26667,0 4.08,0.746667 5.44,2.24 1.36,1.466667 2.04,3.48 2.04,6.04 v 1.8 h -5.24 v -1.44 c 0,-1.36 -0.36,-2.413333 -1.08,-3.16 -0.69333,-0.773333 -1.70667,-1.16 -3.04,-1.16 -2.74667,0 -4.12,1.533333 -4.12,4.6 v 13.48 z"
              style="-inkscape-font-specification:'JetBrains Mono Bold'" fill="#fff" fill-opacity=".904"
              transform="translate(40)"/>
    </g>
</svg>