<svg width="700" height="120" xmlns="http://www.w3.org/2000/svg">
    <path fill="#1a1a1a" fill-opacity=".904" stroke="#909090" stroke-width="2"
          d="M2 2H698V118H2z"/>
    <path fill="none" stroke="#909090" stroke-width="6.783" stroke-linecap="round"
          d="M 59.999925,24.795572 95.203949,59.999595 59.999925,95.203619 24.795902,59.999595 Z"/>
    <path fill="#1a1a1a" stroke-width="4.748" stroke="#4d4d4d"
          d="m 59.999925,27.441077 32.5566,32.5566 -32.5566,32.556599 -32.556599,-32.556599 z"/>
    <g opacity=".5">
        <path d="m 23.545,19.211 h 5.96 v 2.546 h -5.96 z" display="block" fill="#869eb6"
              style="isolation:auto;mix-blend-mode:normal" transform="translate(26.854 26.068) scale(1.0661)"/>
        <path d="m 29.684,19.5 h 3.467 v 2.311 h -3.467 z" display="block" fill="#8e9f81"
              style="isolation:auto;mix-blend-mode:normal" transform="translate(26.854 26.068) scale(1.0661)"/>
        <path d="m 23.545,23.454 h 5.96 V 26 h -5.96 z" display="block" fill="#9e9e86"
              style="isolation:auto;mix-blend-mode:normal" transform="translate(26.854 26.068) scale(1.0661)"/>
        <path d="m 30.334,23.454 h 3.394 V 26 h -3.394 z" display="block" fill="#86b1d6" fill-opacity=".357"
              style="isolation:auto;mix-blend-mode:normal" transform="translate(26.854 26.068) scale(1.0661)"/>
        <path d="m 34.577,23.454 h 3.395 V 26 h -3.395 z" display="block" fill="#88885e" fill-opacity=".495"
              style="isolation:auto;mix-blend-mode:normal" transform="translate(26.854 26.068) scale(1.0661)"/>
        <path d="m 23.545,27.697 h 5.96 v 2.546 h -5.96 z" display="block" fill="#987f95"
              style="isolation:auto;mix-blend-mode:normal" transform="translate(26.854 26.068) scale(1.0661)"/>
        <path d="m 30.334,27.697 h 4.243 v 2.546 h -4.243 z" display="block" fill="#9d875f" fill-opacity=".687"
              style="isolation:auto;mix-blend-mode:normal" transform="translate(26.854 26.068) scale(1.0661)"/>
        <path d="m 23.545,36.183 h 5.94 v 2.546 h -5.94 z" display="block" fill="#987f95" fill-opacity=".676"
              style="isolation:auto;mix-blend-mode:normal" transform="translate(26.854 26.068) scale(1.0661)"/>
        <path d="m 30.334,36.183 h 5.78 v 2.546 h -5.78 z" display="block" fill="#68798d" fill-opacity=".764"
              style="isolation:auto;mix-blend-mode:normal" transform="translate(26.854 26.068) scale(1.0661)"/>
        <path d="m 37.123,36.183 h 5.94 v 2.546 h -5.94 z" display="block" fill="#606d78"
              style="isolation:auto;mix-blend-mode:normal" transform="translate(26.854 26.068) scale(1.0661)"/>
        <path d="m 43.912,36.183 h 4.243 v 2.546 h -4.243 z" display="block" fill="#8f6094"
              style="isolation:auto;mix-blend-mode:normal" transform="translate(26.854 26.068) scale(1.0661)"/>
        <path d="m 23.545,40.427 h 5.96 v 2.545 h -5.96 z" display="block" fill="#b36b75"
              style="isolation:auto;mix-blend-mode:normal" transform="translate(26.854 26.068) scale(1.0661)"/>
        <path d="m 30.334,40.427 h 3.394 v 2.26 h -3.394 z" display="block" fill="#b47f70"
              style="isolation:auto;mix-blend-mode:normal" transform="translate(26.854 26.068) scale(1.0661)"/>
        <path d="m 23.545,46.367 h 6.789 v 2.546 h -6.789 z" display="block" fill="#53c290"
              style="isolation:auto;mix-blend-mode:normal" transform="translate(26.854 26.068) scale(1.0661)"/>
        <path d="m 31.183,46.367 h 4.243 v 2.546 h -4.243 z" display="block" fill="#e675d2"
              style="isolation:auto;mix-blend-mode:normal" transform="translate(26.854 26.068) scale(1.0661)"/>
        <path d="m 34.577,40.427 h 3.395 v 2.545 h -3.395 z" display="block" fill="#5e6974"
              style="isolation:auto;mix-blend-mode:normal" transform="translate(26.854 26.068) scale(1.0661)"/>
        <path d="m 37.773,42.034 h 5.2 v 2.31 h -5.2 z" display="block" fill="#4d854d"
              style="isolation:auto;mix-blend-mode:normal" transform="translate(26.854 26.068) scale(1.0661)"/>
        <path d="m 33.728,19.5 h 5.779 v 2.311 h -5.78 z" display="block" fill="#b36b75"
              style="isolation:auto;mix-blend-mode:normal" transform="translate(26.854 26.068) scale(1.0661)"/>
        <path d="m 40.085,19.5 h 5.778 v 2.311 h -5.78 z" display="block" fill="#8f6094"
              style="isolation:auto;mix-blend-mode:normal" transform="translate(26.854 26.068) scale(1.0661)"/>
        <path d="M 18.453,19.211 H 21 v 2.546 h -2.546 z m 0,4.243 H 21 V 26 h -2.546 z m 0,4.243 H 21 v 2.546 h -2.546 z m 0,4.243 H 21 v 2.546 h -2.546 z m 0,4.243 H 21 v 2.546 h -2.546 z m 0,4.244 H 21 v 2.545 h -2.546 z m 0,5.94 H 21 v 2.546 h -2.546 z"
              display="block" fill="#575f70" style="isolation:auto;mix-blend-mode:normal"
              transform="translate(26.854 26.068) scale(1.0661)"/>
        <path d="m 23.545,14.968 h 5.94 v 2.546 h -5.94 z" display="block" fill="#9176e2"
              style="isolation:auto;mix-blend-mode:normal" transform="translate(26.854 26.068) scale(1.0661)"/>
        <path d="m 30.334,14.968 h 3.394 v 2.546 h -3.394 z" display="block" fill="#57bdff" fill-opacity=".824"
              style="isolation:auto;mix-blend-mode:normal" transform="translate(26.854 26.068) scale(1.0661)"/>
        <path d="M 18.453,14.968 H 21 v 2.546 h -2.546 z" display="block" fill="#575f70"
              style="isolation:auto;mix-blend-mode:normal" transform="translate(26.854 26.068) scale(1.0661)"/>
    </g>
    <path d="M 70.063542,72.517998 H 52.719431 l -7.012153,-12.145406 7.012153,-12.145404 17.344111,-10e-7" fill="none"
          stroke="#fefefe" stroke-width="3.786"/>
    <path fill="none" stroke="#ffb356" stroke-width="3.595"
          d="m 58.406037,59.761567 h 3.187846 v 0.474786 h -3.187846 z"/>
    <g style="line-height:1.25;-inkscape-font-specification:'URW Gothic'">
        <path d="M115 73.940002v-4.52h5.88v-20.16H115v-4.52h16.8v4.52h-5.88v20.16h5.88v4.52zM138.48002 73.940002v-22h4.88v4.2h.08q.36-2.16 1.88-3.36 1.52-1.24 3.96-1.24 3.24 0 5.16 2.16 1.96 2.16 1.96 5.8v14.44h-5v-13.92q0-2-1.08-3.08-1.04-1.08-2.84-1.08-1.88 0-2.96 1.12-1.04 1.12-1.04 3.2v13.76zM173.80003 73.940002q-3.08 0-4.92-1.76-1.8-1.8-1.8-4.84v-10.88h-5.96v-4.52h5.96v-6.2h5.04v6.2h8.44v4.52h-8.44v10.76q0 .96.52 1.6.56.6 1.52.6h6v4.52zM195.44005 74.340002q-2.8 0-4.88-1.08-2.08-1.08-3.24-3-1.12-1.96-1.12-4.56v-5.52q0-2.6 1.12-4.52 1.16-1.96 3.24-3.04 2.08-1.08 4.88-1.08 2.76 0 4.8 1.08 2.08 1.08 3.2 3.04 1.16 1.92 1.16 4.52v3.96h-13.56v1.56q0 4.68 4.44 4.68 3.44 0 4.04-2.28h4.92q-.56 2.84-3.04 4.56-2.44 1.68-5.96 1.68zm-4.4-14.16v.84l8.72-.04v-.84q0-2.28-1.08-3.48-1.08-1.24-3.24-1.24-2.2 0-3.32 1.24-1.08 1.24-1.08 3.52zM211.12006 73.940002v-22h4.88v4.2h.12q.32-2.16 1.92-3.36 1.6-1.24 4.08-1.24 3.4 0 5.44 2.24 2.04 2.2 2.04 6.04v1.8h-5.24v-1.44q0-2.04-1.08-3.16-1.04-1.16-3.04-1.16-4.12 0-4.12 4.6v13.48zM240.96008 74.340002q-3.4 0-5.36-1.76-1.96-1.8-1.96-4.88 0-3.24 2.24-5 2.24-1.8 6.24-1.8h5.28v-1.84q0-1.6-1.04-2.48-1.04-.88-2.92-.88-1.72 0-2.84.72-1.08.72-1.2 1.92h-4.76q.16-3.08 2.6-4.92 2.48-1.88 6.36-1.88 4.08 0 6.44 2 2.36 2 2.36 5.48v14.92h-4.84v-3.72h-.08q-.44 1.92-2.16 3.04-1.72 1.08-4.36 1.08zm1.64-3.72q2.12 0 3.44-1.04 1.36-1.08 1.36-2.84v-2.64h-5.16q-1.68 0-2.64.88-.96.84-.96 2.32 0 1.56 1.04 2.44 1.08.88 2.92.88zM267.52009 74.340002q-2.8 0-4.92-1.04-2.08-1.08-3.24-3-1.16-1.96-1.16-4.6v-5.52q0-2.64 1.16-4.56 1.16-1.96 3.24-3 2.12-1.08 4.92-1.08 4.16 0 6.64 2.16 2.48 2.12 2.6 5.8h-4.88q-.12-1.72-1.32-2.64-1.16-.96-3.04-.96-2 0-3.16 1.12-1.16 1.08-1.16 3.12v5.56q0 2.04 1.16 3.16 1.16 1.12 3.16 1.12 1.92 0 3.08-.92 1.16-.96 1.28-2.68h4.88q-.12 3.68-2.6 5.84-2.48 2.12-6.64 2.12zM293.80011 73.940002q-3.08 0-4.92-1.76-1.8-1.8-1.8-4.84v-10.88h-5.96v-4.52h5.96v-6.2h5.04v6.2h8.44v4.52h-8.44v10.76q0 .96.52 1.6.56.6 1.52.6h6v4.52zM306.44012 73.940002v-4.52h7.52v-12.96h-6.72v-4.52h11.72v17.48h6.76v4.52zm9.68-25.68q-1.52 0-2.4-.76-.88-.8-.88-2.12 0-1.32.88-2.08.88-.8 2.4-.8 1.52 0 2.4.8.88.76.88 2.08 0 1.32-.88 2.12-.88.76-2.4.76zM336.24014 73.940002l-7.56-22h5.2l4.44 13.36q.4 1.2.68 2.48.32 1.28.48 2.04.2-.76.48-2.04.28-1.28.64-2.44l4.36-13.4h5.16l-7.52 22zM363.44015 74.340002q-2.8 0-4.88-1.08-2.08-1.08-3.24-3-1.12-1.96-1.12-4.56v-5.52q0-2.6 1.12-4.52 1.16-1.96 3.24-3.04 2.08-1.08 4.88-1.08 2.76 0 4.8 1.08 2.08 1.08 3.2 3.04 1.16 1.92 1.16 4.52v3.96h-13.56v1.56q0 4.68 4.44 4.68 3.44 0 4.04-2.28h4.92q-.56 2.84-3.04 4.56-2.44 1.68-5.96 1.68zm-4.4-14.16v.84l8.72-.04v-.84q0-2.28-1.08-3.48-1.08-1.24-3.24-1.24-2.2 0-3.32 1.24-1.08 1.24-1.08 3.52zM402.92018 73.940002v-29.2h17.52v4.4h-12.6v7.6h11.2v4.24h-11.2v8.56h12.6v4.4zM424.84018 73.940002l7.68-11.36-7.16-10.64h5.64l3.4 5.4q.32.48.6 1.08.28.6.4.96.16-.36.44-.96.28-.6.56-1.08l3.44-5.4h5.64l-7.16 10.64 7.64 11.36h-5.68l-3.8-6.04q-.32-.48-.64-1.08-.28-.64-.44-1-.16.36-.44 1-.28.6-.6 1.08l-3.88 6.04zM450.48022 81.140002v-29.2h4.88v3.96h.08q.6-2.08 2.12-3.2 1.56-1.16 3.84-1.16 3.24 0 5.2 2.28 2 2.28 2 6.12v5.96q0 3.88-2 6.16-1.96 2.28-5.2 2.28-2.24 0-3.8-1.12-1.56-1.16-2.16-3.24h-.08l.12 5v6.16zm9.08-11.12q1.92 0 2.96-1.12 1.08-1.12 1.08-3.2v-5.52q0-2.08-1.08-3.2-1.04-1.12-2.96-1.12-1.92 0-3 1.16-1.08 1.16-1.08 3.28v5.28q0 2.12 1.08 3.28 1.08 1.16 3 1.16zM486.96025 73.940002q-3.28 0-5.28-1.96-1.96-1.96-1.96-5.16v-17.56h-7.24v-4.52h12.24v21.96q0 1.24.68 2 .72.72 1.92.72h6.44v4.52zM507.40025 74.300002q-4.24 0-6.72-2.32-2.48-2.36-2.48-6.32v-5.44q0-3.96 2.48-6.28 2.48-2.36 6.72-2.36 4.24 0 6.72 2.36 2.48 2.32 2.48 6.24v5.48q0 3.96-2.48 6.32-2.48 2.32-6.72 2.32zm0-4.36q2 0 3.08-1.08 1.12-1.12 1.12-3.2v-5.44q0-2.08-1.12-3.16-1.08-1.12-3.08-1.12-2 0-3.12 1.12-1.08 1.08-1.08 3.16v5.44q0 2.08 1.08 3.2 1.12 1.08 3.12 1.08zM523.12025 73.940002v-22h4.88v4.2h.12q.32-2.16 1.92-3.36 1.6-1.24 4.08-1.24 3.4 0 5.44 2.24 2.04 2.2 2.04 6.04v1.8h-5.24v-1.44q0-2.04-1.08-3.16-1.04-1.16-3.04-1.16-4.12 0-4.12 4.6v13.48zM555.44028 74.340002q-2.8 0-4.88-1.08-2.08-1.08-3.24-3-1.12-1.96-1.12-4.56v-5.52q0-2.6 1.12-4.52 1.16-1.96 3.24-3.04 2.08-1.08 4.88-1.08 2.76 0 4.8 1.08 2.08 1.08 3.2 3.04 1.16 1.92 1.16 4.52v3.96h-13.56v1.56q0 4.68 4.44 4.68 3.44 0 4.04-2.28h4.92q-.56 2.84-3.04 4.56-2.44 1.68-5.96 1.68zm-4.4-14.16v.84l8.72-.04v-.84q0-2.28-1.08-3.48-1.08-1.24-3.24-1.24-2.2 0-3.32 1.24-1.08 1.24-1.08 3.52zM571.12031 73.940002v-22h4.88v4.2h.12q.32-2.16 1.92-3.36 1.6-1.24 4.08-1.24 3.4 0 5.44 2.24 2.04 2.2 2.04 6.04v1.8h-5.24v-1.44q0-2.04-1.08-3.16-1.04-1.16-3.04-1.16-4.12 0-4.12 4.6v13.48zM640.52037 73.940002l8.08-14.96-7.6-14.24h5.6l3.68 7.32q.4.8.72 1.56.32.72.48 1.12.12-.4.44-1.12.32-.76.72-1.56l3.72-7.32h5.44l-7.6 14.12 8.08 15.08h-5.6l-4.12-8.08q-.4-.76-.76-1.52-.32-.8-.48-1.24-.16.44-.48 1.2-.32.76-.72 1.56l-4.16 8.08z"
              style="-inkscape-font-specification:'JetBrains Mono Bold'" fill="#fff" fill-opacity=".904"/>
    </g>
    <g style="line-height:1.25;-inkscape-font-specification:'URW Gothic'">
        <path d="M475.15999 98.864003q-2.544 0-4.032-1.392-1.488-1.416-1.488-3.792v-3.264q0-2.376 1.488-3.768 1.488-1.416 4.032-1.416 2.544 0 4.032 1.416 1.488 1.392 1.488 3.744v3.288q0 2.376-1.488 3.792-1.488 1.392-4.032 1.392zm0-2.616q1.2 0 1.848-.648.672-.672.672-1.92v-3.264q0-1.248-.672-1.896-.648-.672-1.848-.672-1.2 0-1.872.672-.648.648-.648 1.896v3.264q0 1.248.648 1.92.672.648 1.872.648zM487.28 98.648003v-9.024h-3.624v-2.712h3.624v-1.992q0-1.728 1.152-2.76 1.152-1.032 3.048-1.032h3.864v2.64h-3.792q-.576 0-.936.336-.336.312-.336.864v1.944h5.064v2.712h-5.064v9.024zM512.98402 98.648003v-17.52h5.544q1.752 0 3.024.648 1.296.648 2.016 1.824.72 1.152.72 2.736 0 1.752-.888 3.072-.864 1.296-2.352 1.848l3.48 7.392h-3.36l-3.048-6.96h-2.136v6.96zm3-9.6h2.544q1.272 0 1.992-.696.72-.696.72-1.92 0-1.224-.744-1.944-.72-.72-1.968-.72h-2.544zM532.78403 98.888003q-1.68 0-2.928-.648-1.248-.648-1.944-1.8-.672-1.176-.672-2.736v-3.312q0-1.56.672-2.712.696-1.176 1.944-1.824 1.248-.648 2.928-.648 1.656 0 2.88.648 1.248.648 1.92 1.824.696 1.152.696 2.712v2.376h-8.136v.936q0 2.808 2.664 2.808 2.064 0 2.424-1.368h2.952q-.336 1.704-1.824 2.736-1.464 1.008-3.576 1.008zm-2.64-8.496v.504l5.232-.024v-.504q0-1.368-.648-2.088-.648-.744-1.944-.744-1.32 0-1.992.744-.648.744-.648 2.112zM545.26404 98.648003l-4.536-13.2h3.12l2.664 8.016q.24.72.408 1.488.192.768.288 1.224.12-.456.288-1.224.168-.768.384-1.464l2.616-8.04h3.096l-4.512 13.2zM561.58405 98.888003q-1.68 0-2.928-.648-1.248-.648-1.944-1.8-.672-1.176-.672-2.736v-3.312q0-1.56.672-2.712.696-1.176 1.944-1.824 1.248-.648 2.928-.648 1.656 0 2.88.648 1.248.648 1.92 1.824.696 1.152.696 2.712v2.376h-8.136v.936q0 2.808 2.664 2.808 2.064 0 2.424-1.368h2.952q-.336 1.704-1.824 2.736-1.464 1.008-3.576 1.008zm-2.64-8.496v.504l5.232-.024v-.504q0-1.368-.648-2.088-.648-.744-1.944-.744-1.32 0-1.992.744-.648.744-.648 2.112zM570.99206 98.648003v-13.2h2.928v2.52h.072q.192-1.296 1.152-2.016.96-.744 2.448-.744 2.04 0 3.264 1.344 1.224 1.32 1.224 3.624v1.08h-3.144v-.864q0-1.224-.648-1.896-.624-.696-1.824-.696-2.472 0-2.472 2.76v8.088zM589.85606 98.864003q-1.512 0-2.664-.456-1.152-.48-1.8-1.344-.624-.864-.624-2.04h3.024q0 .696.552 1.08.576.36 1.536.36h1.032q1.128 0 1.68-.408.552-.408.552-1.128 0-1.368-2.04-1.68l-1.848-.24q-4.152-.6-4.152-3.96 0-1.872 1.248-2.832 1.272-.984 3.672-.984h.912q2.232 0 3.576 1.008 1.368.984 1.368 2.616h-3.024q0-.576-.504-.888-.504-.336-1.44-.336h-.912q-1.968 0-1.968 1.416 0 1.224 1.752 1.488l1.872.288q2.232.312 3.312 1.296 1.104.984 1.104 2.736 0 1.896-1.32 2.952-1.296 1.056-3.84 1.056zM599.38407 98.648003v-2.712h4.512v-7.776h-4.032v-2.712h7.032v10.488h4.056v2.712zm5.808-15.408q-.912 0-1.44-.456-.528-.48-.528-1.272 0-.792.528-1.248.528-.48 1.44-.48.912 0 1.44.48.528.456.528 1.248 0 .792-.528 1.272-.528.456-1.44.456zM613.80808 98.648003v-13.2h2.928v2.52h.048q.216-1.296 1.128-2.016.912-.744 2.376-.744 1.944 0 3.096 1.296 1.176 1.296 1.176 3.48v8.664h-3v-8.352q0-1.2-.648-1.848-.624-.648-1.704-.648-1.128 0-1.776.672-.624.672-.624 1.92v8.256zM630.00809 102.968v-2.496h3.912q2.016 0 2.016-1.895997v-.984l.048-2.472h-.048q-.192 1.296-1.104 2.04-.912.72-2.352.72-2.016 0-3.216-1.368-1.176-1.368-1.176-3.696v-2.568q0-2.304 1.176-3.672 1.2-1.368 3.216-1.368 1.44 0 2.352.744.912.72 1.104 2.016h.048l-.072-2.52h3v13.2q0 2.015997-1.32 3.167997-1.32 1.152-3.624 1.152zm3.48-7.679997q1.152 0 1.776-.672.648-.696.648-1.92v-2.304q0-1.224-.648-1.896-.624-.696-1.776-.696-1.152 0-1.776.672-.624.672-.624 1.92v2.304q0 1.248.624 1.92.624.672 1.776.672z"
              style="-inkscape-font-specification:'JetBrains Mono Bold'" fill="#fff" fill-opacity=".604"/>
    </g>
</svg>